%TF.GenerationSoftware,KiCad,Pcbnew,(6.0.10-0)*%
%TF.CreationDate,2023-02-17T12:21:21-08:00*%
%TF.ProjectId,Exercise 2,45786572-6369-4736-9520-322e6b696361,rev?*%
%TF.SameCoordinates,Original*%
%TF.FileFunction,Copper,L2,Bot*%
%TF.FilePolarity,Positive*%
%FSLAX46Y46*%
G04 Gerber Fmt 4.6, Leading zero omitted, Abs format (unit mm)*
G04 Created by KiCad (PCBNEW (6.0.10-0)) date 2023-02-17 12:21:21*
%MOMM*%
%LPD*%
G01*
G04 APERTURE LIST*
%TA.AperFunction,ComponentPad*%
%ADD10R,3.000000X3.000000*%
%TD*%
%TA.AperFunction,ComponentPad*%
%ADD11C,3.000000*%
%TD*%
%TA.AperFunction,ViaPad*%
%ADD12C,0.800000*%
%TD*%
%TA.AperFunction,Conductor*%
%ADD13C,0.250000*%
%TD*%
G04 APERTURE END LIST*
D10*
%TO.P,J1,1,Pin_1*%
%TO.N,+9V*%
X138750000Y-73575000D03*
D11*
%TO.P,J1,2,Pin_2*%
%TO.N,GND*%
X133670000Y-73575000D03*
%TD*%
D12*
%TO.N,GND*%
X133670000Y-83895000D03*
X133100000Y-86500000D03*
X137275000Y-87910498D03*
%TO.N,/pin_2*%
X142070000Y-90645000D03*
X133385000Y-89015000D03*
X137725000Y-86525000D03*
X129550000Y-90975000D03*
%TO.N,+9V*%
X131225000Y-92225000D03*
X138902900Y-88466200D03*
X139650000Y-86700000D03*
X137825000Y-92109502D03*
X142437500Y-85662500D03*
%TO.N,Net-(C2-Pad1)*%
X141900000Y-91875000D03*
X133025000Y-102375000D03*
%TD*%
D13*
%TO.N,GND*%
X137275000Y-87500000D02*
X133670000Y-83895000D01*
X137275000Y-87910498D02*
X135864502Y-86500000D01*
X135864502Y-86500000D02*
X133100000Y-86500000D01*
X137275000Y-87910498D02*
X137275000Y-87500000D01*
%TO.N,/pin_2*%
X142070000Y-87595000D02*
X142070000Y-90645000D01*
X137725000Y-86525000D02*
X138625000Y-87425000D01*
X133385000Y-89015000D02*
X131510000Y-89015000D01*
X131510000Y-89015000D02*
X129550000Y-90975000D01*
X141900000Y-87425000D02*
X142070000Y-87595000D01*
X138625000Y-87425000D02*
X141900000Y-87425000D01*
%TO.N,+9V*%
X137825000Y-92109502D02*
X137709502Y-92225000D01*
X141400000Y-86700000D02*
X142437500Y-85662500D01*
X137709502Y-92225000D02*
X131225000Y-92225000D01*
X139650000Y-86700000D02*
X141400000Y-86700000D01*
X138275000Y-89094100D02*
X138275000Y-91659502D01*
X138902900Y-88466200D02*
X138275000Y-89094100D01*
X138275000Y-91659502D02*
X137825000Y-92109502D01*
%TO.N,Net-(C2-Pad1)*%
X133025000Y-100750000D02*
X133025000Y-102375000D01*
X141900000Y-91875000D02*
X133025000Y-100750000D01*
%TD*%
M02*
